<mxfile host="Electron" agent="Mozilla/5.0 (Macintosh; Intel Mac OS X 10_15_7) AppleWebKit/537.36 (KHTML, like Gecko) draw.io/27.0.9 Chrome/134.0.6998.205 Electron/35.4.0 Safari/537.36" version="27.0.9">
  <diagram name="JavaScript" id="ZMv-MKKW6OiMh1DnbZVP">
    <mxGraphModel dx="980" dy="785" grid="0" gridSize="10" guides="0" tooltips="1" connect="1" arrows="1" fold="1" page="1" pageScale="1" pageWidth="850" pageHeight="1100" math="0" shadow="0">
      <root>
        <mxCell id="0" />
        <mxCell id="1" parent="0" />
        <mxCell id="I_vUf-rGHrZXqWORPhef-2" value="" style="rounded=1;whiteSpace=wrap;html=1;arcSize=0;" vertex="1" parent="1">
          <mxGeometry x="51" y="216" width="307" height="451" as="geometry" />
        </mxCell>
        <mxCell id="I_vUf-rGHrZXqWORPhef-4" value="outerValue" style="rounded=1;whiteSpace=wrap;html=1;" vertex="1" parent="1">
          <mxGeometry x="77" y="260" width="258" height="60" as="geometry" />
        </mxCell>
        <mxCell id="I_vUf-rGHrZXqWORPhef-5" value="later = innerFn" style="rounded=1;whiteSpace=wrap;html=1;" vertex="1" parent="1">
          <mxGeometry x="82" y="333" width="253" height="60" as="geometry" />
        </mxCell>
        <mxCell id="I_vUf-rGHrZXqWORPhef-6" value="" style="rounded=1;whiteSpace=wrap;html=1;" vertex="1" parent="1">
          <mxGeometry x="73" y="416" width="266" height="232" as="geometry" />
        </mxCell>
        <mxCell id="I_vUf-rGHrZXqWORPhef-7" value="innerValue" style="rounded=1;whiteSpace=wrap;html=1;" vertex="1" parent="1">
          <mxGeometry x="95" y="454" width="212" height="66" as="geometry" />
        </mxCell>
        <mxCell id="I_vUf-rGHrZXqWORPhef-8" value="global" style="text;html=1;align=center;verticalAlign=middle;whiteSpace=wrap;rounded=0;fontStyle=1" vertex="1" parent="1">
          <mxGeometry x="75" y="228" width="60" height="30" as="geometry" />
        </mxCell>
        <mxCell id="I_vUf-rGHrZXqWORPhef-9" value="outerFunction" style="text;html=1;align=center;verticalAlign=middle;whiteSpace=wrap;rounded=0;fontStyle=1" vertex="1" parent="1">
          <mxGeometry x="83" y="419" width="134" height="30" as="geometry" />
        </mxCell>
        <mxCell id="I_vUf-rGHrZXqWORPhef-10" value="console.log(outerValue);&lt;div&gt;console.log(innerValue);&lt;/div&gt;" style="rounded=1;whiteSpace=wrap;html=1;" vertex="1" parent="1">
          <mxGeometry x="94" y="540" width="223" height="89" as="geometry" />
        </mxCell>
        <mxCell id="I_vUf-rGHrZXqWORPhef-11" value="innerFunction" style="text;html=1;align=center;verticalAlign=middle;whiteSpace=wrap;rounded=0;fontStyle=1" vertex="1" parent="1">
          <mxGeometry x="97" y="546" width="134" height="30" as="geometry" />
        </mxCell>
        <mxCell id="I_vUf-rGHrZXqWORPhef-12" value="CLOSURES" style="text;html=1;align=center;verticalAlign=middle;whiteSpace=wrap;rounded=0;fontStyle=1" vertex="1" parent="1">
          <mxGeometry x="108" y="158" width="167" height="44" as="geometry" />
        </mxCell>
        <mxCell id="I_vUf-rGHrZXqWORPhef-14" value="&lt;h1 style=&quot;margin-top: 0px;&quot;&gt;HOC&lt;/h1&gt;&lt;p&gt;&lt;br&gt;&lt;/p&gt;&lt;p&gt;&amp;lt;Context value=&quot;1&quot;&amp;gt;&lt;/p&gt;&lt;p&gt;&amp;lt;A /&amp;gt;&lt;/p&gt;&lt;p&gt;&amp;lt;B /&amp;gt;&lt;/p&gt;&lt;p&gt;&amp;lt;Context&amp;gt;&lt;/p&gt;&lt;p&gt;&lt;br&gt;&lt;/p&gt;" style="text;html=1;whiteSpace=wrap;overflow=hidden;rounded=0;" vertex="1" parent="1">
          <mxGeometry x="430" y="216" width="276" height="209" as="geometry" />
        </mxCell>
      </root>
    </mxGraphModel>
  </diagram>
</mxfile>
